<?xml version="1.0" standalone="no"?>
<!DOCTYPE svg PUBLIC "-//W3C//DTD SVG 20010904//EN"
 "http://www.w3.org/TR/2001/REC-SVG-20010904/DTD/svg10.dtd">
<svg version="1.0" xmlns="http://www.w3.org/2000/svg"
 width="413.000000pt" height="475.000000pt" viewBox="0 0 413.000000 475.000000"
 preserveAspectRatio="xMidYMid meet">

<g transform="translate(0.000000,475.000000) scale(0.100000,-0.100000)"
fill="#000000" stroke="none">
<path d="M1230 4693 c0 -4 9 -39 20 -77 18 -64 18 -70 3 -81 -15 -11 -14 -16
9 -56 31 -54 81 -170 75 -176 -3 -2 -20 4 -40 13 -19 9 -42 14 -51 11 -14 -6
-12 -14 14 -59 17 -29 45 -79 61 -112 31 -58 31 -59 7 -51 -88 27 -97 15 -44
-64 35 -52 76 -148 76 -179 0 -11 -15 -1 -47 31 -71 73 -85 61 -47 -39 32 -83
65 -187 60 -191 -1 -2 -23 24 -49 56 -121 156 -335 268 -602 316 -49 9 -170
19 -267 22 -156 5 -178 4 -178 -9 0 -10 24 -25 68 -41 49 -18 68 -30 70 -45 2
-16 14 -21 55 -26 75 -10 187 -36 187 -44 0 -4 -19 -15 -41 -26 -27 -12 -39
-24 -37 -35 3 -13 26 -18 117 -28 63 -7 117 -16 120 -19 3 -3 -9 -16 -27 -30
-44 -35 -42 -54 6 -54 57 0 158 -19 205 -37 l42 -17 -35 -7 c-19 -4 -52 -10
-72 -13 -23 -4 -38 -13 -38 -21 0 -8 17 -19 38 -24 201 -55 241 -72 155 -64
-57 6 -172 -10 -240 -33 -225 -75 -435 -250 -647 -537 -52 -71 -62 -97 -35
-97 6 0 37 19 71 43 40 28 62 38 65 30 8 -22 20 -15 75 43 29 31 70 70 91 86
l37 30 -6 -56 c-5 -44 -4 -56 7 -56 8 0 54 42 102 92 72 76 87 88 82 66 -7
-36 4 -78 20 -78 7 0 31 22 53 49 39 50 139 141 154 141 11 0 10 -8 -6 -33 -8
-12 -22 -39 -31 -60 -26 -64 3 -56 106 27 108 87 234 155 299 162 39 4 42 3
26 -8 -359 -245 -614 -593 -724 -989 -138 -490 -60 -1015 211 -1427 73 -111
184 -252 198 -252 6 0 25 11 43 25 163 124 576 161 951 84 55 -12 210 -57 345
-101 326 -107 424 -128 623 -135 180 -6 264 4 404 48 155 50 175 62 246 147
158 191 279 414 340 627 147 515 68 1039 -222 1475 -230 347 -590 607 -988
716 -54 14 -131 41 -173 59 -102 45 -225 81 -345 101 -213 36 -456 -8 -567
-101 -17 -14 -33 -24 -35 -21 -2 2 5 35 17 73 59 189 24 425 -101 678 -60 122
-217 359 -241 363 -10 2 -18 0 -18 -5z m147 -235 c177 -289 238 -546 183 -761
-10 -43 -31 -97 -46 -122 -29 -50 -111 -145 -125 -145 -5 0 -9 40 -9 89 0 80
-22 196 -54 286 -8 20 -7 20 11 -1 10 -11 25 -31 34 -44 11 -16 21 -21 33 -17
14 6 16 15 10 54 -9 64 -50 193 -68 218 -35 46 -12 46 29 0 33 -36 48 -46 56
-38 11 11 -45 150 -99 242 -26 45 -18 47 25 8 13 -11 29 -17 38 -13 19 7 17
16 -32 136 -19 47 -35 103 -37 125 -2 22 -7 49 -11 59 -18 42 14 3 62 -76z
m-692 -463 c289 -55 523 -198 605 -370 33 -70 56 -164 46 -190 -5 -15 -11 -13
-40 12 -52 46 -133 89 -231 122 l-90 31 63 0 c52 0 62 3 62 18 0 33 -184 112
-260 112 -16 0 -31 4 -34 9 -6 10 41 21 90 21 35 0 43 10 22 28 -7 6 -75 21
-150 33 -75 13 -135 26 -132 29 3 3 22 10 42 15 19 6 37 16 40 23 5 15 -26 27
-140 56 -47 12 -92 27 -100 33 -7 6 -29 18 -48 27 -34 16 -32 16 70 11 58 -3
141 -12 185 -20z m1577 -349 c60 -14 114 -29 122 -33 8 -4 -65 -8 -162 -8
-163 -1 -245 -9 -377 -37 -70 -14 -211 -57 -262 -79 -24 -10 -43 -15 -43 -11
0 9 57 64 107 104 116 93 373 120 615 64z m183 -101 c134 -19 199 -33 221 -50
30 -22 -95 -10 -210 19 -54 14 -107 26 -117 26 -32 0 -32 -22 0 -52 18 -17 31
-31 29 -33 -2 -2 -67 18 -145 44 -79 27 -140 51 -136 54 12 12 257 7 358 -8z
m-382 -15 c-4 -13 1 -22 13 -26 26 -9 84 -53 84 -63 0 -5 -30 3 -67 17 -50 18
-95 26 -169 30 -129 6 -146 -12 -56 -57 24 -12 42 -24 40 -27 -3 -2 -39 3 -82
11 -43 8 -114 15 -159 15 -54 1 -77 4 -66 10 58 34 349 108 431 109 31 1 35
-2 31 -19z m-954 -65 c56 -15 161 -64 161 -75 0 -4 -23 -12 -50 -18 -64 -15
-154 -60 -236 -117 -35 -24 -64 -42 -64 -38 0 3 11 21 25 39 34 45 33 68 -2
59 -45 -10 -132 -66 -195 -124 -32 -29 -58 -48 -58 -41 0 16 19 51 42 77 20
21 17 43 -4 43 -6 0 -60 -48 -119 -107 -60 -59 -109 -104 -109 -100 0 4 7 24
15 44 19 45 19 53 -1 53 -18 0 -114 -73 -158 -119 -17 -17 -38 -31 -49 -31
-10 0 -30 -9 -44 -20 -41 -32 -39 -15 3 37 273 335 598 504 843 438z m1423
-16 c51 -17 101 -35 110 -40 13 -7 21 -5 29 9 11 17 16 18 88 5 67 -11 77 -11
87 3 11 13 24 9 110 -32 55 -26 134 -69 177 -97 l78 -49 -26 -34 c-14 -19 -40
-64 -58 -102 -27 -57 -32 -81 -35 -163 -3 -70 0 -112 13 -155 78 -270 361
-420 626 -331 41 14 75 24 77 22 10 -9 57 -164 78 -255 24 -107 30 -170 16
-170 -4 0 -43 15 -87 34 -375 158 -724 449 -1098 917 -87 109 -123 132 -166
108 -14 -8 -87 -86 -163 -174 -135 -157 -328 -355 -346 -355 -5 0 -12 40 -15
90 -11 144 -34 236 -87 347 -79 162 -205 281 -342 321 -32 9 -58 20 -58 23 0
9 67 19 130 19 68 0 159 -14 267 -41 130 -33 147 -14 52 56 -40 29 -55 45 -42
45 35 0 138 -31 202 -60 96 -45 109 -39 72 33 -12 23 -15 37 -7 37 6 0 60 -20
120 -45 135 -55 153 -50 101 28 -32 46 -26 47 97 6z m-972 -121 c167 -40 319
-197 391 -405 19 -54 51 -234 44 -241 -2 -2 -11 11 -21 30 -9 18 -21 36 -26
39 -6 4 -24 42 -41 85 -35 86 -55 100 -69 45 -5 -18 -11 -31 -14 -28 -3 2 -16
46 -30 98 -13 51 -29 99 -35 106 -15 17 -31 6 -24 -17 7 -21 -3 -70 -14 -70
-4 0 -13 23 -20 50 -15 57 -87 173 -105 167 -6 -2 -10 -21 -8 -46 1 -22 -1
-41 -5 -41 -5 0 -18 25 -31 54 -13 30 -46 82 -74 116 -66 82 -54 91 82 58z
m-52 -157 c16 -31 37 -77 47 -103 24 -64 42 -79 51 -41 3 15 10 42 14 58 l8
30 23 -50 c12 -27 25 -74 27 -103 2 -29 9 -55 15 -59 6 -3 23 8 38 26 15 18
29 29 32 24 3 -4 10 -35 16 -68 19 -100 21 -105 32 -105 5 0 19 17 31 37 l22
37 18 -40 c9 -21 23 -63 29 -92 10 -42 16 -52 29 -49 12 3 23 -8 39 -41 12
-24 20 -47 17 -49 -3 -3 -49 11 -103 32 -86 33 -154 66 -383 187 -39 21 -63
28 -84 24 -16 -4 -72 -42 -126 -85 -124 -102 -364 -260 -376 -248 -7 7 55 193
96 289 70 161 190 339 313 465 l61 63 43 -42 c23 -22 55 -66 71 -97z m-255 76
c-4 -7 -40 -55 -79 -107 -114 -153 -205 -324 -255 -479 l-23 -71 -33 6 c-23 4
-41 1 -58 -10 -38 -25 -30 -36 26 -36 48 0 51 -1 45 -22 -5 -21 -19 -94 -44
-243 -5 -34 -12 -49 -22 -47 -20 5 -153 -19 -164 -30 -6 -4 0 -8 15 -9 13 -1
31 -2 39 -3 8 -2 40 -3 70 -4 l55 -2 2 -133 c1 -72 6 -160 11 -194 l9 -63 -46
0 c-61 -1 -169 -24 -154 -33 13 -8 171 -14 192 -7 10 4 17 -8 23 -40 8 -40 51
-189 64 -224 4 -9 -17 -18 -73 -30 -122 -26 -123 -36 -3 -36 l105 -1 30 -67
c16 -37 44 -93 62 -125 18 -33 31 -63 28 -67 -3 -5 -20 -12 -37 -16 -52 -11
-182 -69 -233 -103 -25 -17 -49 -31 -53 -31 -10 0 -72 114 -72 131 0 9 19 19
48 26 74 18 169 57 149 61 -9 2 -57 -2 -105 -8 -48 -7 -95 -13 -105 -13 -14
-2 -24 13 -42 62 -23 63 -59 195 -70 261 l-6 35 66 3 c37 2 76 7 88 11 18 7
11 11 -38 21 -33 7 -74 13 -92 14 -31 0 -32 1 -37 51 -13 126 -16 201 -10 244
6 43 8 46 37 47 90 2 146 8 142 14 -2 4 -39 13 -82 20 -43 7 -81 16 -85 19 -9
8 5 110 33 234 21 92 23 97 48 97 38 0 102 20 96 30 -3 4 -27 11 -55 15 l-49
7 23 61 c13 34 47 108 75 165 l52 103 52 -1 c82 -3 82 -3 63 19 -10 11 -31 23
-47 26 -16 4 -29 10 -29 13 0 4 31 48 69 97 l68 90 46 -2 c51 -3 59 7 30 40
-17 18 -15 21 57 91 61 58 175 153 188 155 2 1 -1 -5 -5 -12z m2104 -121 c164
-149 293 -314 383 -495 49 -98 49 -99 -49 -128 -87 -25 -210 -15 -293 24 -115
54 -199 146 -238 264 -29 85 -25 219 9 294 28 63 70 125 85 125 6 0 52 -38
103 -84z m-720 -93 c180 -220 257 -308 388 -439 168 -168 288 -268 450 -374
117 -76 295 -168 385 -198 53 -18 55 -20 63 -63 4 -24 6 -62 5 -83 l-3 -40
-1515 3 c-833 1 -1516 3 -1517 4 -1 1 -4 21 -7 43 l-7 41 93 33 c253 90 550
223 725 326 300 176 488 341 757 662 63 76 118 132 128 132 9 0 34 -21 55 -47z
m-1102 -284 c100 -59 225 -120 335 -164 52 -20 99 -41 103 -45 18 -16 -258
-196 -453 -294 -202 -103 -624 -275 -639 -261 -10 11 -4 257 9 349 7 48 17 92
24 97 6 5 71 47 144 94 128 81 197 131 310 222 29 24 63 43 75 43 12 0 54 -19
92 -41z m1773 -959 l612 0 0 -49 c0 -111 -64 -418 -86 -414 -152 26 -241 28
-360 8 -153 -27 -124 -35 125 -35 209 0 233 -2 227 -16 -3 -9 -9 -26 -12 -39
-4 -15 -31 -37 -87 -68 -180 -100 -401 -154 -672 -164 -253 -9 -471 15 -980
106 -121 22 -274 47 -340 56 -157 22 -420 30 -515 17 -45 -7 -79 -7 -85 -2
-20 17 -113 202 -150 300 -35 93 -85 266 -85 298 0 14 89 15 898 9 493 -4
1173 -7 1510 -7z m-1558 -669 c74 -11 281 -45 460 -75 473 -80 485 -81 765
-81 234 1 258 3 379 28 123 26 278 77 359 119 22 11 41 17 44 15 14 -14 -137
-251 -236 -369 -48 -58 -67 -72 -126 -97 -154 -64 -220 -76 -440 -75 -239 1
-277 8 -615 119 -379 125 -509 149 -800 149 -253 0 -425 -33 -533 -101 -30
-19 -45 -23 -56 -16 -18 11 -140 169 -161 209 -13 24 -12 27 10 45 78 62 261
128 412 149 95 13 386 3 538 -19z"/>
<path d="M2740 3234 c0 -21 25 -48 73 -78 18 -11 26 -23 23 -32 -4 -9 4 -18
20 -24 36 -14 64 -12 64 4 0 8 19 18 48 24 l47 11 -70 -3 c-66 -2 -73 0 -117
32 -26 18 -56 45 -67 60 -19 25 -20 25 -21 6z"/>
<path d="M2225 2397 c50 -25 102 -58 115 -72 23 -25 24 -27 8 -39 -21 -15 -13
-26 17 -26 23 0 50 24 69 61 11 22 41 40 130 80 28 13 45 24 39 26 -19 7 -119
-37 -143 -62 -32 -34 -72 -32 -118 5 -46 37 -93 56 -157 65 l-50 7 90 -45z"/>
<path d="M3007 2005 c-22 -7 -49 -22 -60 -33 -12 -11 -33 -22 -45 -24 l-24 -3
22 -27 c25 -32 55 -38 46 -10 -7 22 20 50 84 86 49 28 38 33 -23 11z"/>
<path d="M2820 1986 c25 -14 50 -25 55 -25 16 -1 -48 36 -75 43 -14 4 -5 -4
20 -18z"/>
<path d="M1379 2490 c-80 -78 -83 -79 -162 -74 -74 4 -80 0 -14 -11 23 -4 37
-11 37 -20 0 -9 10 -15 26 -15 35 0 64 17 58 34 -3 8 8 22 29 34 43 27 70 57
65 74 -2 8 -16 1 -39 -22z"/>
<path d="M2280 1720 c-36 -5 -85 -16 -110 -24 -41 -13 -19 -14 259 -15 167 -1
302 2 298 5 -29 29 -323 51 -447 34z"/>
<path d="M1280 1704 c-115 -10 -236 -27 -250 -35 -9 -5 172 -9 429 -9 244 0
442 3 438 6 -23 23 -470 51 -617 38z"/>
<path d="M3215 1694 c-110 -10 -222 -27 -235 -35 -9 -5 180 -9 439 -9 250 0
452 3 449 6 -25 24 -505 53 -653 38z"/>
<path d="M2164 1510 c-131 -24 -94 -29 206 -28 287 0 302 1 260 15 -53 18
-384 27 -466 13z"/>
<path d="M1310 1500 c-112 -11 -196 -30 -179 -41 16 -10 270 -12 452 -2 71 3
123 9 115 13 -43 24 -273 42 -388 30z"/>
<path d="M2995 1499 c-38 -5 -90 -15 -115 -23 -41 -13 -18 -14 265 -14 280 0
306 1 266 14 -100 31 -270 41 -416 23z"/>
<path d="M1574 1320 c-149 -17 -177 -22 -163 -31 18 -11 829 -11 847 0 41 25
-514 51 -684 31z"/>
<path d="M2595 1174 c-149 -28 -112 -34 199 -34 178 0 295 4 292 9 -21 34
-355 51 -491 25z"/>
<path d="M1380 770 c-159 -15 -308 -62 -380 -120 l-25 -21 60 -55 c79 -73 200
-164 276 -209 l62 -36 81 40 c138 68 298 87 452 55 41 -8 136 -42 211 -75 177
-79 287 -115 453 -149 l135 -28 100 35 c121 42 292 128 398 200 93 63 209 155
203 161 -3 2 -44 -8 -93 -22 -312 -90 -552 -70 -1013 84 -235 79 -332 105
-465 125 -125 19 -338 26 -455 15z m442 -65 c134 -20 229 -45 473 -125 339
-111 449 -134 660 -134 77 -1 160 2 185 6 l45 8 -30 -25 c-46 -38 -249 -139
-354 -176 -92 -32 -94 -32 -169 -20 -162 27 -346 86 -532 171 -58 27 -140 55
-182 64 -158 33 -331 14 -470 -51 l-77 -36 -53 33 c-74 45 -258 191 -258 205
0 14 116 58 198 75 113 24 421 27 564 5z"/>
<path d="M1655 401 c-71 -11 -152 -37 -205 -65 l-44 -24 69 -34 c282 -141 642
-197 985 -154 74 10 138 21 143 25 4 4 -30 15 -75 25 -125 27 -258 72 -392
133 -67 30 -150 64 -186 74 -74 22 -222 32 -295 20z m270 -62 c22 -6 92 -35
155 -64 63 -29 144 -63 180 -75 36 -13 69 -27 74 -32 14 -12 -227 -10 -321 2
-152 21 -325 68 -458 125 -40 17 -40 18 -15 27 97 37 285 46 385 17z"/>
</g>
</svg>
